<?xml version="1.0" encoding="utf-8" ?><svg xmlns="http://www.w3.org/2000/svg" xmlns:xlink="http://www.w3.org/1999/xlink" width="20" height="20"><path fill="#6B7A6E" transform="matrix(1 0 0 1 2.5 2.5)" d="M7.5 -0.75Q7.2411 -0.7545 7.0396 -0.592L-0.4604 5.2413Q-0.5983 5.3472 -0.6737 5.5038Q-0.751 5.6595 -0.75 5.8333L-0.75 14.1667Q-0.75 14.7898 -0.2699 15.2699Q0.2102 15.75 0.8333 15.75L5 15.75Q5.3144 15.759 5.5303 15.5303Q5.759 15.3144 5.75 15L5.75 9.9167L9.25 9.9167L9.25 15Q9.241 15.3144 9.4697 15.5303Q9.6856 15.759 10 15.75L14.1667 15.75Q14.7898 15.75 15.2699 15.2699Q15.75 14.7898 15.75 14.1667L15.75 5.8333Q15.751 5.6595 15.6737 5.5038Q15.5983 5.3472 15.4604 5.2413L7.9604 -0.592Q7.7589 -0.7545 7.5 -0.75ZM7.5 0.9501L0.75 6.2001L0.75 14.1667Q0.75 14.1685 0.7907 14.2093Q0.8315 14.25 0.8333 14.25L4.25 14.25L4.25 9.1667Q4.241 8.8523 4.4697 8.6363Q4.6856 8.4076 5 8.4167L10 8.4167Q10.3144 8.4076 10.5303 8.6363Q10.759 8.8523 10.75 9.1667L10.75 14.25L14.1667 14.25Q14.1685 14.25 14.2093 14.2093Q14.25 14.1685 14.25 14.1667L14.25 6.2001L7.5 0.9501Z" fill-rule="evenodd"/></svg>