<?xml version="1.0" encoding="utf-8" ?><svg xmlns="http://www.w3.org/2000/svg" xmlns:xlink="http://www.w3.org/1999/xlink" width="36" height="36"><circle fill="#FFF2D6" cx="18" cy="18" r="18"/><path fill="#E89B6C" transform="matrix(1 0 0 1 11.25 11.25)" d="M0 1.5C0 0.6716 0.6716 0 1.5 0L12 0C12.8285 0 13.5 0.6716 13.5 1.5L13.5 12C13.5 12.8285 12.8285 13.5 12 13.5L1.5 13.5C0.6716 13.5 0 12.8285 0 12L0 1.5ZM3 3L10.5 3L10.5 4.5L3 4.5L3 3ZM3 6L10.5 6L10.5 7.5L3 7.5L3 6ZM3 9L8.25 9L8.25 10.5L3 10.5L3 9Z"/></svg>