<?xml version="1.0" encoding="utf-8" ?><svg xmlns="http://www.w3.org/2000/svg" xmlns:xlink="http://www.w3.org/1999/xlink" width="12" height="12"><path fill="#E89B6C" transform="matrix(1 0 0 1 1.5 1)" d="M1.55 1.5L1.55 2.05L1.5 2.05Q1.4876 2.0497 1.4754 2.05L0 2.05L0 2.95L1.0167 2.95L0.5511 9.4679Q0.5506 9.4759 0.5503 9.4839Q0.55 9.492 0.55 9.5Q0.55 10.0614 0.9943 10.5057Q1.4386 10.95 2 10.95L7 10.95Q7.5614 10.95 8.0057 10.5057Q8.45 10.0614 8.45 9.5Q8.45 9.492 8.4497 9.4839Q8.4494 9.4759 8.4489 9.4679L7.9833 2.95L9 2.95L9 2.05L7.5246 2.05Q7.5124 2.0497 7.5 2.05L7.45 2.05L7.45 1.5Q7.45 0.5636 6.9432 0.0568Q6.4364 -0.45 5.5 -0.45L3.5 -0.45Q2.5636 -0.45 2.0568 0.0568Q1.55 0.5636 1.55 1.5ZM6.55 2.05L6.55 1.5Q6.55 0.9364 6.3068 0.6932Q6.0636 0.45 5.5 0.45L3.5 0.45Q2.9364 0.45 2.6932 0.6932Q2.45 0.9364 2.45 1.5L2.45 2.05L6.55 2.05ZM7.081 2.95L1.919 2.95L1.4502 9.513Q1.4562 9.6948 1.6307 9.8693Q1.8114 10.05 2 10.05L7 10.05Q7.1886 10.05 7.3693 9.8693Q7.5438 9.6948 7.5498 9.513L7.081 2.95ZM3.95 7.5L3.95 5L3.05 5L3.05 7.5L3.95 7.5ZM5.95 7.5L5.95 5L5.05 5L5.05 7.5L5.95 7.5Z" fill-rule="evenodd"/></svg>